<svg width="19" height="24" viewBox="0 0 19 24" fill="none" xmlns="http://www.w3.org/2000/svg">
<path d="M16.869 0.831283C17.1211 0.831158 17.3675 0.912968 17.5771 1.06636C17.7868 1.21976 17.9502 1.43784 18.0467 1.69302C18.1431 1.9482 18.1684 2.229 18.1192 2.49989C18.0699 2.77079 17.9485 3.0196 17.7702 3.21485L11.2536 10.3544C11.0564 10.5705 10.8999 10.827 10.7932 11.1093C10.6864 11.3917 10.6315 11.6943 10.6315 11.9999C10.6315 12.3055 10.6864 12.6081 10.7932 12.8905C10.8999 13.1728 11.0564 13.4293 11.2536 13.6454L17.7702 20.7849C17.8886 20.9146 17.9824 21.0686 18.0465 21.238C18.1105 21.4074 18.1435 21.589 18.1435 21.7724C18.1435 22.1428 18.0092 22.498 17.7702 22.7599C17.5312 23.0218 17.207 23.1689 16.869 23.1689C16.7016 23.1689 16.5359 23.1328 16.3813 23.0626C16.2266 22.9925 16.0861 22.8896 15.9678 22.7599L9.45204 15.6194C8.57598 14.6595 8.08381 13.3575 8.08381 11.9999C8.08381 10.6423 8.57598 9.34031 9.45204 8.38033L15.9678 1.23987C16.0861 1.11025 16.2267 1.00745 16.3813 0.937346C16.5359 0.86724 16.7016 0.8312 16.869 0.831283V0.831283Z" fill="#1B1919"/>
<path d="M9.79181 0.831284C10.051 0.831343 10.3043 0.913288 10.5197 1.06676C10.7352 1.22022 10.903 1.43832 11.0022 1.69346C11.1013 1.9486 11.1271 2.22933 11.0765 2.50015C11.0259 2.77096 10.901 3.01969 10.7177 3.21489L2.78205 11.6706C2.74137 11.7138 2.70911 11.7652 2.68709 11.8217C2.66507 11.8782 2.65374 11.9388 2.65374 12.0001C2.65374 12.0613 2.66507 12.1219 2.68709 12.1784C2.70911 12.235 2.74137 12.2863 2.78205 12.3295L10.7177 20.7852C10.9635 21.047 11.1016 21.4021 11.1017 21.7724C11.1018 22.1427 10.9638 22.4979 10.7181 22.7598C10.4725 23.0217 10.1392 23.1689 9.79168 23.1689C9.44415 23.169 9.11083 23.022 8.86503 22.7602L0.928502 14.3036C0.356855 13.6919 0.0359132 12.8638 0.0359132 12.0005C0.0359132 11.1373 0.356855 10.3092 0.928502 9.69743L8.86503 1.23987C8.98676 1.11025 9.13126 1.00746 9.29027 0.937348C9.44929 0.867242 9.61971 0.831201 9.79181 0.831284V0.831284Z" fill="#1B1919"/>
</svg>
