<svg width="20" height="20" viewBox="0 0 20 20" fill="none" xmlns="http://www.w3.org/2000/svg">
<g clip-path="url(#clip0_399_473)">
<path d="M5.83366 20.0006C6.75413 20.0006 7.50032 19.2544 7.50032 18.3339C7.50032 17.4134 6.75413 16.6672 5.83366 16.6672C4.91318 16.6672 4.16699 17.4134 4.16699 18.3339C4.16699 19.2544 4.91318 20.0006 5.83366 20.0006Z" fill="#1B1919"/>
<path d="M14.1667 20.0006C15.0871 20.0006 15.8333 19.2544 15.8333 18.3339C15.8333 17.4134 15.0871 16.6672 14.1667 16.6672C13.2462 16.6672 12.5 17.4134 12.5 18.3339C12.5 19.2544 13.2462 20.0006 14.1667 20.0006Z" fill="#1B1919"/>
<path d="M16.4583 10.9683C16.3375 11.4085 16.0754 11.7967 15.7124 12.0735C15.3494 12.3502 14.9056 12.5 14.4492 12.5H6.01417C5.94603 12.4994 5.88054 12.4735 5.83047 12.4273C5.7804 12.3811 5.74934 12.3179 5.74333 12.25L5.03 6.66667H8.75C9.08152 6.66667 9.39946 6.53497 9.63388 6.30055C9.8683 6.06613 10 5.74819 10 5.41667C10 5.08515 9.8683 4.7672 9.63388 4.53278C9.39946 4.29836 9.08152 4.16667 8.75 4.16667H4.71083L4.4925 2.44917C4.41328 1.77452 4.08915 1.15244 3.58161 0.700965C3.07407 0.249495 2.41845 6.08351e-05 1.73917 0L1.25 0C0.918479 0 0.600537 0.131696 0.366117 0.366117C0.131696 0.600537 0 0.918479 0 1.25C0 1.58152 0.131696 1.89946 0.366117 2.13388C0.600537 2.3683 0.918479 2.5 1.25 2.5H1.73917C1.8073 2.50056 1.87279 2.52648 1.92286 2.5727C1.97293 2.61892 2.004 2.68212 2.01 2.75L3.26 12.55C3.33905 13.2249 3.66322 13.8473 4.17095 14.299C4.67869 14.7507 5.33462 15.0001 6.01417 15H14.4492C15.4526 14.9994 16.428 14.6696 17.2259 14.0611C18.0237 13.4526 18.5998 12.5992 18.8658 11.6317L18.8792 11.5817C18.9302 11.3964 18.9377 11.2019 18.9013 11.0132C18.8649 10.8245 18.7855 10.6468 18.6693 10.4938C18.5531 10.3408 18.4031 10.2167 18.2311 10.131C18.0591 10.0454 17.8696 10.0005 17.6775 10C17.404 9.99994 17.1381 10.0896 16.9204 10.2551C16.7028 10.4207 16.5454 10.6531 16.4725 10.9167L16.4583 10.9683Z" fill="#1B1919"/>
<path d="M18.75 2.5H17.5V1.25C17.5 0.918479 17.3683 0.600537 17.1339 0.366117C16.8995 0.131696 16.5815 0 16.25 0C15.9185 0 15.6005 0.131696 15.3661 0.366117C15.1317 0.600537 15 0.918479 15 1.25V2.5H13.75C13.4185 2.5 13.1005 2.6317 12.8661 2.86612C12.6317 3.10054 12.5 3.41848 12.5 3.75C12.5 4.08152 12.6317 4.39946 12.8661 4.63388C13.1005 4.8683 13.4185 5 13.75 5H15V6.25C15 6.58152 15.1317 6.89946 15.3661 7.13388C15.6005 7.3683 15.9185 7.5 16.25 7.5C16.5815 7.5 16.8995 7.3683 17.1339 7.13388C17.3683 6.89946 17.5 6.58152 17.5 6.25V5H18.75C19.0815 5 19.3995 4.8683 19.6339 4.63388C19.8683 4.39946 20 4.08152 20 3.75C20 3.41848 19.8683 3.10054 19.6339 2.86612C19.3995 2.6317 19.0815 2.5 18.75 2.5Z" fill="#1B1919"/>
</g>
<defs>
<clipPath id="clip0_399_473">
<rect width="20" height="20" fill="white"/>
</clipPath>
</defs>
</svg>
