<svg width="28" height="28" viewBox="0 0 28 28" fill="none" xmlns="http://www.w3.org/2000/svg">
<g clip-path="url(#clip0_399_480)" filter="url(#filter0_d_399_480)">
<path d="M9.83366 20.0006C10.7541 20.0006 11.5003 19.2544 11.5003 18.3339C11.5003 17.4134 10.7541 16.6672 9.83366 16.6672C8.91318 16.6672 8.16699 17.4134 8.16699 18.3339C8.16699 19.2544 8.91318 20.0006 9.83366 20.0006Z" fill="#1B1919"/>
<path d="M18.1667 20.0006C19.0871 20.0006 19.8333 19.2544 19.8333 18.3339C19.8333 17.4134 19.0871 16.6672 18.1667 16.6672C17.2462 16.6672 16.5 17.4134 16.5 18.3339C16.5 19.2544 17.2462 20.0006 18.1667 20.0006Z" fill="#1B1919"/>
<path d="M20.4583 10.9692C20.3374 11.409 20.0753 11.797 19.7125 12.0735C19.3497 12.3501 18.9062 12.4999 18.45 12.5H10.0142C9.94603 12.4994 9.88054 12.4735 9.83047 12.4273C9.7804 12.3811 9.74934 12.3179 9.74333 12.25L9.03 6.66667H11.9167C12.2482 6.66667 12.5661 6.53497 12.8006 6.30055C13.035 6.06613 13.1667 5.74819 13.1667 5.41667C13.1667 5.08515 13.035 4.7672 12.8006 4.53278C12.5661 4.29836 12.2482 4.16667 11.9167 4.16667H8.71083L8.4925 2.44917C8.41328 1.77452 8.08915 1.15244 7.58161 0.700965C7.07407 0.249495 6.41845 6.08351e-05 5.73917 0L5.25 0C4.91848 0 4.60054 0.131696 4.36612 0.366117C4.1317 0.600537 4 0.918479 4 1.25C4 1.58152 4.1317 1.89946 4.36612 2.13388C4.60054 2.3683 4.91848 2.5 5.25 2.5H5.73917C5.8073 2.50056 5.87279 2.52648 5.92286 2.5727C5.97293 2.61892 6.004 2.68212 6.01 2.75L7.26 12.55C7.33905 13.2249 7.66322 13.8473 8.17095 14.299C8.67869 14.7507 9.33462 15.0001 10.0142 15H18.4492C19.4526 14.9994 20.428 14.6696 21.2259 14.0611C22.0237 13.4526 22.5998 12.5992 22.8658 11.6317L22.8792 11.5817C22.9302 11.3964 22.9377 11.2019 22.9013 11.0132C22.8649 10.8245 22.7855 10.6468 22.6693 10.4938C22.5531 10.3408 22.4031 10.2167 22.2311 10.131C22.0591 10.0454 21.8696 10.0005 21.6775 10C21.404 9.99994 21.1381 10.0896 20.9204 10.2551C20.7028 10.4207 20.5454 10.6531 20.4725 10.9167L20.4583 10.9692Z" fill="#1B1919"/>
<path d="M21.8441 2.07176L18.2657 5.65009L17.5566 4.91593C17.4428 4.79757 17.3069 4.70278 17.1565 4.63697C17.0061 4.57116 16.8442 4.53561 16.6801 4.53236C16.5159 4.52911 16.3528 4.55822 16.1999 4.61803C16.047 4.67784 15.9074 4.76717 15.7891 4.88093C15.6707 4.99468 15.5759 5.13064 15.5101 5.28103C15.4443 5.43142 15.4088 5.5933 15.4055 5.75743C15.399 6.0889 15.5243 6.4094 15.7541 6.64843L16.8066 7.74343C16.989 7.93714 17.2083 8.09249 17.4516 8.20039C17.6948 8.30828 17.9572 8.36654 18.2232 8.37176H18.2566C18.7848 8.37044 19.2911 8.16083 19.6657 7.78843L23.6107 3.84259C23.7301 3.72728 23.8254 3.58935 23.8909 3.43685C23.9564 3.28434 23.9909 3.12032 23.9923 2.95434C23.9937 2.78837 23.9621 2.62377 23.8993 2.47015C23.8364 2.31653 23.7436 2.17696 23.6262 2.0596C23.5089 1.94223 23.3693 1.84942 23.2157 1.78656C23.0621 1.72371 22.8975 1.69209 22.7315 1.69353C22.5655 1.69497 22.4015 1.72945 22.249 1.79497C22.0965 1.86048 21.9585 1.9557 21.8432 2.07509L21.8441 2.07176Z" fill="#1B1919"/>
</g>
<defs>
<filter id="filter0_d_399_480" x="0" y="0" width="28" height="28" filterUnits="userSpaceOnUse" color-interpolation-filters="sRGB">
<feFlood flood-opacity="0" result="BackgroundImageFix"/>
<feColorMatrix in="SourceAlpha" type="matrix" values="0 0 0 0 0 0 0 0 0 0 0 0 0 0 0 0 0 0 127 0" result="hardAlpha"/>
<feOffset dy="4"/>
<feGaussianBlur stdDeviation="2"/>
<feComposite in2="hardAlpha" operator="out"/>
<feColorMatrix type="matrix" values="0 0 0 0 0 0 0 0 0 0 0 0 0 0 0 0 0 0 0.25 0"/>
<feBlend mode="normal" in2="BackgroundImageFix" result="effect1_dropShadow_399_480"/>
<feBlend mode="normal" in="SourceGraphic" in2="effect1_dropShadow_399_480" result="shape"/>
</filter>
<clipPath id="clip0_399_480">
<rect width="20" height="20" fill="white" transform="translate(4)"/>
</clipPath>
</defs>
</svg>
