<svg width="26" height="26" viewBox="0 0 26 26" fill="none" xmlns="http://www.w3.org/2000/svg">
<g clip-path="url(#clip0_690_3109)">
<path d="M17.399 8.60034C16.7646 7.96552 15.7357 7.96522 15.1009 8.59963C15.1006 8.59988 15.1004 8.60014 15.1001 8.60034L12.9996 10.702L10.899 8.60034C10.2642 7.96552 9.23495 7.96552 8.60019 8.60034C7.96542 9.23516 7.96537 10.2644 8.60019 10.8992L10.7018 12.9998L8.60014 15.1003C7.96532 15.7352 7.96532 16.7644 8.60014 17.3992C9.23495 18.034 10.2642 18.034 10.8989 17.3992L12.9996 15.2975L15.1001 17.3992C15.7349 18.034 16.7642 18.034 17.3989 17.3992C18.0338 16.7644 18.0338 15.7352 17.3989 15.1004L15.2973 12.9998L17.399 10.8992C18.0338 10.2648 18.0341 9.23592 17.3997 8.6011C17.3994 8.60085 17.3992 8.60059 17.399 8.60034Z" fill="#1B1919"/>
<path d="M13 0C5.82029 0 0 5.82029 0 13C0 20.1797 5.82029 26 13 26C20.1797 26 26 20.1797 26 13C25.9922 5.82349 20.1765 0.00776953 13 0ZM13 22.75C7.61521 22.75 3.25 18.3848 3.25 13C3.25 7.61521 7.61521 3.25 13 3.25C18.3848 3.25 22.75 7.61521 22.75 13C22.744 18.3823 18.3823 22.744 13 22.75Z" fill="#1B1919"/>
</g>
<defs>
<clipPath id="clip0_690_3109">
<rect width="26" height="26" fill="white"/>
</clipPath>
</defs>
</svg>
