<svg width="15" height="30" viewBox="0 0 15 30" fill="none" xmlns="http://www.w3.org/2000/svg">
<path d="M1.15039 7.94336H13.8504V26.9434H1.15039V7.94336Z" fill="#F5F3F4"/>
<path d="M1.9502 10.4436V7.49355C5.6502 6.59355 13.0502 5.14355 13.0502 5.14355C9.35019 6.04355 5.6502 9.54355 1.9502 10.4436" fill="#F5F3F4"/>
<path d="M1.9502 13.2432V10.2932C5.6502 9.39316 9.35019 5.89316 13.0502 4.99316V7.94316C9.35019 8.84316 5.6502 12.3432 1.9502 13.2432" fill="#1B1919"/>
<path d="M1.9502 16.0938V13.1437C5.6502 12.2437 9.35019 8.74375 13.0502 7.84375V10.7937C9.35019 11.6437 5.6502 15.1438 1.9502 16.0938" fill="#F5F3F4"/>
<path d="M1.9502 18.8936V15.9436C5.6502 15.0436 9.35019 11.5436 13.0502 10.6436V13.5936C9.35019 14.4936 5.6502 17.9936 1.9502 18.8936Z" fill="#1B1919"/>
<path d="M1.9502 21.6436V18.6936C5.6502 17.7936 9.35019 14.2936 13.0502 13.3936V16.3436C9.35019 17.2436 5.6502 20.7436 1.9502 21.6436" fill="#F5F3F4"/>
<path d="M1.9502 24.4932V21.5432C5.6502 20.6432 9.35019 17.1432 13.0502 16.2432V19.1932C9.35019 20.0432 5.6502 23.5432 1.9502 24.4932" fill="#1B1919"/>
<path d="M1.9502 27.293V24.343C5.6502 23.443 9.35019 19.943 13.0502 19.043V21.993C9.35019 22.893 5.6502 26.393 1.9502 27.293" fill="#F5F3F4"/>
<path d="M3.5502 29.1437C3.5502 28.1437 1.9502 28.1437 1.9502 27.1437C5.6502 26.2437 9.35019 22.7437 13.0502 21.8438V24.7937C9.35019 25.6937 7.2502 28.2437 3.5502 29.1437Z" fill="#1B1919"/>
<path d="M6.40027 27.9436C8.60027 26.6436 10.8503 25.1436 13.0503 24.6436V27.5936C9.35027 28.4436 4.90027 28.7936 6.40027 27.9436Z" fill="#F5F3F4"/>
<path d="M14 6.39336H1C1 -1.45664 14 -1.45664 14 6.39336Z" fill="#F5F3F4"/>
<path d="M15 7.29336C15 7.79336 14.55 8.19336 14 8.19336H1C0.45 8.19336 0 7.79336 0 7.29336V6.34336C0 5.84336 0.45 5.44336 1 5.44336H14C14.55 5.44336 15 5.84336 15 6.34336V7.29336ZM15 28.5934C15 29.0934 14.55 29.4934 14 29.4934H1C0.45 29.4934 0 29.0934 0 28.5934V27.6434C0 27.1434 0.45 26.7434 1 26.7434H14C14.55 26.7434 15 27.1434 15 27.6434V28.5934Z" fill="#F5F3F4"/>
</svg>
