<svg width="24" height="24" viewBox="0 0 24 24" fill="none" xmlns="http://www.w3.org/2000/svg">
<path d="M24 10.0911L22.751 4.30707C22.4853 3.08252 21.807 1.98642 20.8296 1.20235C19.8522 0.418268 18.635 -0.00618435 17.382 6.81013e-05H6.618C5.36497 -0.00618435 4.14784 0.418268 3.17043 1.20235C2.19302 1.98642 1.51468 3.08252 1.249 4.30707L0.036 9.76607L0 11.0461C0.00452092 12.0494 0.358074 13.0199 1 13.7911V18.5001C1.00159 19.9583 1.58156 21.3563 2.61267 22.3874C3.64377 23.4185 5.0418 23.9985 6.5 24.0001H17.5C18.9582 23.9985 20.3562 23.4185 21.3873 22.3874C22.4184 21.3563 22.9984 19.9583 23 18.5001V13.7911C23.6419 13.0199 23.9955 12.0494 24 11.0461V10.0911ZM3 10.2561L4.177 4.95607C4.30074 4.40102 4.61002 3.90475 5.0538 3.54914C5.49757 3.19354 6.04933 2.99986 6.618 3.00007H7V4.50007C7 4.89789 7.15804 5.27942 7.43934 5.56073C7.72064 5.84203 8.10218 6.00007 8.5 6.00007C8.89782 6.00007 9.27936 5.84203 9.56066 5.56073C9.84196 5.27942 10 4.89789 10 4.50007V3.00007H14V4.50007C14 4.89789 14.158 5.27942 14.4393 5.56073C14.7206 5.84203 15.1022 6.00007 15.5 6.00007C15.8978 6.00007 16.2794 5.84203 16.5607 5.56073C16.842 5.27942 17 4.89789 17 4.50007V3.00007H17.382C17.9509 2.99996 18.5029 3.19393 18.9467 3.54992C19.3905 3.90592 19.6997 4.40265 19.823 4.95807L21 10.2561V11.0461C20.9904 11.4013 20.8425 11.7387 20.5878 11.9866C20.3332 12.2345 19.9919 12.3731 19.6365 12.3731C19.2811 12.3731 18.9398 12.2345 18.6852 11.9866C18.4305 11.7387 18.2826 11.4013 18.273 11.0461C18.2796 10.7196 18.221 10.395 18.1006 10.0915C17.9802 9.78791 17.8005 9.51142 17.5719 9.27818C17.3433 9.04495 17.0705 8.85966 16.7694 8.73317C16.4683 8.60668 16.1451 8.54152 15.8185 8.54152C15.4919 8.54152 15.1687 8.60668 14.8676 8.73317C14.5665 8.85966 14.2937 9.04495 14.0651 9.27818C13.8365 9.51142 13.6568 9.78791 13.5364 10.0915C13.416 10.395 13.3574 10.7196 13.364 11.0461C13.364 11.4078 13.2203 11.7548 12.9645 12.0106C12.7087 12.2664 12.3618 12.4101 12 12.4101C11.6382 12.4101 11.2913 12.2664 11.0355 12.0106C10.7797 11.7548 10.636 11.4078 10.636 11.0461C10.6426 10.7196 10.584 10.395 10.4636 10.0915C10.3432 9.78791 10.1635 9.51142 9.93488 9.27818C9.7063 9.04495 9.43349 8.85966 9.13242 8.73317C8.83135 8.60668 8.50807 8.54152 8.1815 8.54152C7.85494 8.54152 7.53165 8.60668 7.23058 8.73317C6.92951 8.85966 6.6567 9.04495 6.42812 9.27818C6.19955 9.51142 6.0198 9.78791 5.89942 10.0915C5.77903 10.395 5.72041 10.7196 5.727 11.0461C5.71738 11.4013 5.5695 11.7387 5.31485 11.9866C5.06019 12.2345 4.71886 12.3731 4.3635 12.3731C4.00814 12.3731 3.66681 12.2345 3.41215 11.9866C3.1575 11.7387 3.00962 11.4013 3 11.0461V10.2561ZM17.5 21.0001H6.5C5.83696 21.0001 5.20107 20.7367 4.73223 20.2678C4.26339 19.799 4 19.1631 4 18.5001V15.3721C4.122 15.3831 4.239 15.4091 4.364 15.4091C5.14356 15.4085 5.90876 15.1993 6.58015 14.8031C7.25153 14.4069 7.80463 13.8382 8.182 13.1561C8.55903 13.8385 9.11206 14.4073 9.78353 14.8035C10.455 15.1996 11.2204 15.4086 12 15.4086C12.7796 15.4086 13.545 15.1996 14.2165 14.8035C14.8879 14.4073 15.441 13.8385 15.818 13.1561C16.1954 13.8382 16.7485 14.4069 17.4199 14.8031C18.0912 15.1993 18.8564 15.4085 19.636 15.4091C19.761 15.4091 19.878 15.3831 20 15.3721V18.5001C20 18.8284 19.9353 19.1535 19.8097 19.4568C19.6841 19.7601 19.4999 20.0357 19.2678 20.2678C19.0356 20.5 18.76 20.6841 18.4567 20.8098C18.1534 20.9354 17.8283 21.0001 17.5 21.0001Z" fill="#F5F3F4"/>
</svg>
