<svg width="25" height="23" viewBox="0 0 25 23" fill="none" xmlns="http://www.w3.org/2000/svg">
<path d="M17.9688 0.850586C16.9004 0.860509 15.8492 1.11053 14.8996 1.58061C13.9499 2.05069 13.1281 2.72776 12.5001 3.55759C11.872 2.72776 11.0502 2.05069 10.1006 1.58061C9.15091 1.11053 8.09975 0.860509 7.03133 0.850586C5.09567 0.924792 3.26937 1.73176 1.95176 3.09505C0.634153 4.45833 -0.0675531 6.26701 7.75234e-05 8.12559C7.75234e-05 12.6776 4.86883 17.5506 8.95841 20.8376C9.95146 21.6392 11.2073 22.0787 12.5048 22.0787C13.8022 22.0787 15.0581 21.6392 16.0511 20.8376C20.1365 17.5506 25.0095 12.6776 25.0095 8.12559C25.077 6.26551 24.3741 4.45552 23.0544 3.09198C21.7348 1.72844 19.9061 0.922474 17.9688 0.850586V0.850586ZM14.0386 18.5386C13.6078 18.8868 13.0627 19.0778 12.4996 19.0778C11.9364 19.0778 11.3913 18.8868 10.9605 18.5386C5.98133 14.5306 3.12508 10.7356 3.12508 8.12559C3.05866 7.0628 3.43162 6.01776 4.16298 5.21737C4.89433 4.41697 5.92504 3.92583 7.03133 3.85059C8.13761 3.92583 9.16832 4.41697 9.89968 5.21737C10.631 6.01776 11.004 7.0628 10.9376 8.12559C10.9376 8.52341 11.1022 8.90494 11.3952 9.18625C11.6882 9.46755 12.0857 9.62559 12.5001 9.62559C12.9145 9.62559 13.3119 9.46755 13.6049 9.18625C13.898 8.90494 14.0626 8.52341 14.0626 8.12559C13.9962 7.0628 14.3691 6.01776 15.1005 5.21737C15.8318 4.41697 16.8625 3.92583 17.9688 3.85059C19.0751 3.92583 20.1058 4.41697 20.8372 5.21737C21.5685 6.01776 21.9415 7.0628 21.8751 8.12559C21.8751 10.7356 19.0188 14.5306 14.0386 18.5386Z" fill="#1B1919"/>
</svg>
