<svg width="25" height="23" viewBox="0 0 25 23" fill="none" xmlns="http://www.w3.org/2000/svg">
<path d="M11.0033 21.9383C11.0033 21.7405 11.062 21.5472 11.1718 21.3827C11.2817 21.2183 11.4379 21.0901 11.6206 21.0144C11.8034 20.9387 12.0044 20.9189 12.1984 20.9575C12.3924 20.9961 12.5706 21.0913 12.7104 21.2312C12.8503 21.371 12.9455 21.5492 12.9841 21.7432C13.0227 21.9372 13.0029 22.1383 12.9272 22.321C12.8515 22.5037 12.7233 22.6599 12.5589 22.7698C12.3944 22.8796 12.2011 22.9383 12.0033 22.9383C11.7381 22.9383 11.4837 22.8329 11.2962 22.6454C11.1087 22.4579 11.0033 22.2035 11.0033 21.9383ZM15.5383 19.8163C15.7258 19.6288 15.8311 19.3745 15.8311 19.1093C15.8311 18.8441 15.7258 18.5898 15.5383 18.4023C14.6007 17.4649 13.3291 16.9384 12.0033 16.9384C10.6775 16.9384 9.40595 17.4649 8.46831 18.4023C8.28615 18.5909 8.18536 18.8435 8.18763 19.1057C8.18991 19.3679 8.29508 19.6187 8.48049 19.8041C8.6659 19.9895 8.91671 20.0947 9.17891 20.097C9.4411 20.0992 9.69371 19.9985 9.88231 19.8163C10.454 19.2713 11.2135 18.9673 12.0033 18.9673C12.7931 18.9673 13.5526 19.2713 14.1243 19.8163C14.3118 20.0038 14.5661 20.1091 14.8313 20.1091C15.0965 20.1091 15.3508 20.0038 15.5383 19.8163ZM18.3673 16.9883C18.5548 16.8008 18.6601 16.5465 18.6601 16.2813C18.6601 16.0161 18.5548 15.7618 18.3673 15.5743C16.6782 13.8889 14.3895 12.9423 12.0033 12.9423C9.61715 12.9423 7.32844 13.8889 5.63931 15.5743C5.45715 15.7629 5.35636 16.0155 5.35863 16.2777C5.36091 16.5399 5.46608 16.7907 5.65149 16.9761C5.8369 17.1615 6.08771 17.2667 6.34991 17.269C6.6121 17.2712 6.86471 17.1705 7.05331 16.9883C8.36751 15.6781 10.1476 14.9423 12.0033 14.9423C13.8591 14.9423 15.6391 15.6781 16.9533 16.9883C17.1408 17.1758 17.3951 17.2811 17.6603 17.2811C17.9255 17.2811 18.1798 17.1758 18.3673 16.9883ZM5.99031 21.0993C6.01146 20.9697 6.00687 20.8372 5.9768 20.7093C5.94674 20.5815 5.89178 20.4608 5.81508 20.3542C5.73838 20.2476 5.64143 20.1572 5.52977 20.088C5.41811 20.0189 5.29393 19.9724 5.16431 19.9513C4.40866 19.8318 3.70651 19.4875 3.14931 18.9633C2.5921 18.4391 2.20566 17.7592 2.04031 17.0123C1.9327 16.298 2.05047 15.568 2.37722 14.9238C2.70397 14.2797 3.22344 13.7534 3.86331 13.4183C4.32393 13.1655 4.66659 12.7417 4.81723 12.2383C4.96786 11.7349 4.91437 11.1925 4.66831 10.7283C4.27947 9.98776 4.04976 9.17411 3.99391 8.33956C3.93807 7.50501 4.05733 6.66801 4.34404 5.88227C4.63075 5.09653 5.07857 4.37942 5.65876 3.77695C6.23896 3.17449 6.9387 2.69999 7.71309 2.3839C8.48748 2.06782 9.3194 1.91713 10.1555 1.94152C10.9915 1.9659 11.8132 2.16482 12.5679 2.52551C13.3225 2.88619 13.9934 3.40067 14.5375 4.03593C15.0816 4.67118 15.4869 5.41318 15.7273 6.21429C15.8753 6.697 16.139 7.13626 16.4954 7.49387C16.8518 7.85149 17.2901 8.11665 17.7723 8.26629C19.0787 8.66398 20.2093 9.49737 20.9757 10.6276C21.7422 11.7578 22.0982 13.1165 21.9843 14.4773C21.8949 15.4992 21.5308 16.4779 20.9304 17.3097C20.3301 18.1415 19.516 18.7955 18.5743 19.2023C18.3411 19.3199 18.1632 19.524 18.0785 19.771C17.9938 20.0181 18.0092 20.2885 18.1212 20.5243C18.2333 20.7602 18.4332 20.9429 18.6782 21.0334C18.9232 21.1238 19.1939 21.1148 19.4323 21.0083C20.6951 20.4549 21.7846 19.5699 22.5851 18.4474C23.3857 17.3248 23.8674 16.0065 23.9793 14.6323C24.1303 12.818 23.6549 11.0067 22.6322 9.50052C21.6095 7.99433 20.1014 6.88422 18.3593 6.35529C18.1878 6.30199 18.0321 6.20707 17.9061 6.07901C17.7801 5.95094 17.6878 5.7937 17.6373 5.62129C17.1079 3.92137 16.0266 2.44663 14.5645 1.43058C13.1024 0.414532 11.3432 -0.0847583 9.5654 0.0117716C7.78757 0.108301 6.09275 0.795134 4.7493 1.96351C3.40584 3.13189 2.49053 4.71505 2.14831 6.46229C1.79872 8.23019 2.07371 10.0646 2.92631 11.6523C1.92132 12.1778 1.10517 13.0035 0.59148 14.0146C0.0777893 15.0257 -0.107884 16.1718 0.0603072 17.2933C0.288791 18.4614 0.869572 19.5315 1.72451 20.3596C2.57944 21.1877 3.66751 21.7341 4.84231 21.9253C4.97192 21.9464 5.10444 21.9419 5.23228 21.9118C5.36012 21.8817 5.48079 21.8268 5.58739 21.7501C5.69399 21.6734 5.78444 21.5764 5.85358 21.4648C5.92271 21.3531 5.96917 21.2289 5.99031 21.0993Z" fill="black"/>
</svg>
