<svg width="25" height="24" viewBox="0 0 25 24" fill="none" xmlns="http://www.w3.org/2000/svg">
<path d="M22.7745 13.9701L20.3295 14.6161C19.9723 14.7114 19.6385 14.8789 19.3485 15.1081L16.7315 13.5861C17.0996 12.5601 17.0996 11.4381 16.7315 10.4121L19.3485 8.89012C19.6385 9.11938 19.9723 9.28682 20.3295 9.38212C20.3295 9.38212 22.9465 10.0611 23.0295 10.0611C23.2694 10.0571 23.4999 9.96703 23.6789 9.80722C23.8579 9.64742 23.9735 9.42858 24.0045 9.19064C24.0356 8.9527 23.98 8.71153 23.848 8.51115C23.716 8.31076 23.5164 8.16452 23.2855 8.09912L20.8415 7.45212C20.6585 7.40353 20.5022 7.28433 20.407 7.12066C20.3117 6.957 20.2853 6.76224 20.3335 6.57912L20.9805 4.13512C21.0141 4.00813 21.0224 3.87576 21.0049 3.74558C20.9873 3.61539 20.9443 3.48993 20.8783 3.37637C20.8123 3.2628 20.7245 3.16335 20.6201 3.08369C20.5156 3.00404 20.3965 2.94574 20.2695 2.91212C20.1425 2.8785 20.0101 2.87022 19.88 2.88776C19.7498 2.9053 19.6243 2.9483 19.5107 3.01433C19.3972 3.08035 19.2977 3.16809 19.2181 3.27255C19.1384 3.37701 19.0801 3.49613 19.0465 3.62312L18.4005 6.06712C18.3054 6.42585 18.2857 6.80038 18.3425 7.16712L15.7265 8.68312C15.0168 7.87612 14.0651 7.32044 13.0135 7.09912V4.09912C13.358 3.96473 13.6709 3.76044 13.9325 3.49912L15.7205 1.71112C15.9087 1.52361 16.0146 1.26903 16.0151 1.00339C16.0156 0.737741 15.9105 0.482789 15.723 0.294618C15.5355 0.106447 15.2809 0.000470405 15.0153 1.56222e-06C14.7496 -0.000467281 14.4947 0.10461 14.3065 0.292118L12.5185 2.08012C12.3841 2.21312 12.2026 2.28773 12.0135 2.28773C11.8244 2.28773 11.6429 2.21312 11.5085 2.08012L9.7205 0.292118C9.5319 0.10996 9.2793 0.00916585 9.0171 0.0114443C8.7549 0.0137227 8.50409 0.118892 8.31868 0.3043C8.13327 0.489708 8.0281 0.74052 8.02583 1.00272C8.02355 1.26491 8.12434 1.51752 8.3065 1.70612L10.0945 3.49912C10.3561 3.76044 10.669 3.96473 11.0135 4.09912V7.09912C9.9619 7.32044 9.01015 7.87612 8.3005 8.68312L5.6845 7.16112C5.74134 6.79438 5.72159 6.41985 5.6265 6.06112L4.9805 3.61912C4.94688 3.49213 4.88858 3.37301 4.80892 3.26855C4.72927 3.16409 4.62982 3.07635 4.51625 3.01033C4.40269 2.9443 4.27723 2.9013 4.14704 2.88376C4.01685 2.86622 3.88449 2.8745 3.7575 2.90812C3.63051 2.94174 3.51139 3.00004 3.40693 3.07969C3.30247 3.15935 3.21473 3.2588 3.14871 3.37237C3.08268 3.48593 3.03968 3.61139 3.02214 3.74158C3.0046 3.87176 3.01288 4.00413 3.0465 4.13112L3.6935 6.57512C3.74168 6.75824 3.71526 6.953 3.62002 7.11666C3.52478 7.28033 3.36852 7.39953 3.1855 7.44812L0.741498 8.09912C0.507484 8.16174 0.304157 8.30718 0.169295 8.50842C0.034433 8.70966 -0.0227945 8.95301 0.00824519 9.19326C0.0392848 9.43351 0.156481 9.65433 0.338059 9.81468C0.519638 9.97504 0.753252 10.064 0.995498 10.0651C1.0805 10.0651 3.6955 9.38612 3.6955 9.38612C4.05266 9.29082 4.38652 9.12338 4.6765 8.89412L7.2935 10.4161C6.92545 11.4421 6.92545 12.5641 7.2935 13.5901L4.6785 15.1081C4.38852 14.8789 4.05466 14.7114 3.6975 14.6161L1.2525 13.9701C1.00351 13.9217 0.745418 13.9697 0.530486 14.1044C0.315555 14.2391 0.159848 14.4504 0.0948933 14.6956C0.0299391 14.9408 0.0605928 15.2016 0.180647 15.425C0.300702 15.6485 0.501184 15.8179 0.741498 15.8991L3.1855 16.5461C3.36852 16.5947 3.52478 16.7139 3.62002 16.8776C3.71526 17.0412 3.74168 17.236 3.6935 17.4191L3.0465 19.8631C3.01288 19.9901 3.0046 20.1225 3.02214 20.2527C3.03968 20.3828 3.08268 20.5083 3.14871 20.6219C3.21473 20.7354 3.30247 20.8349 3.40693 20.9145C3.51139 20.9942 3.63051 21.0525 3.7575 21.0861C3.88449 21.1197 4.01685 21.128 4.14704 21.1105C4.27723 21.0929 4.40269 21.0499 4.51625 20.9839C4.62982 20.9179 4.72927 20.8301 4.80892 20.7257C4.88858 20.6212 4.94688 20.5021 4.9805 20.3751L5.6265 17.9311C5.72159 17.5724 5.74134 17.1979 5.6845 16.8311L8.3005 15.3091C9.00928 16.1183 9.96112 16.6762 11.0135 16.8991V19.8991C10.6692 20.0339 10.3564 20.2381 10.0945 20.4991L8.3065 22.2921C8.12434 22.4807 8.02355 22.7333 8.02583 22.9955C8.0281 23.2577 8.13327 23.5085 8.31868 23.6939C8.50409 23.8793 8.7549 23.9845 9.0171 23.9868C9.2793 23.9891 9.5319 23.8883 9.7205 23.7061L11.5135 21.9181C11.6479 21.7851 11.8294 21.7105 12.0185 21.7105C12.2076 21.7105 12.3891 21.7851 12.5235 21.9181L14.3115 23.7061C14.5001 23.8883 14.7527 23.9891 15.0149 23.9868C15.2771 23.9845 15.5279 23.8793 15.7133 23.6939C15.8987 23.5085 16.0039 23.2577 16.0062 22.9955C16.0085 22.7333 15.9077 22.4807 15.7255 22.2921L13.9375 20.5041C13.6746 20.2407 13.36 20.0347 13.0135 19.8991V16.8991C14.065 16.6781 15.0167 16.1227 15.7265 15.3161L18.3425 16.8381C18.2857 17.2049 18.3054 17.5794 18.4005 17.9381L19.0465 20.3821C19.1144 20.6386 19.2814 20.8576 19.5107 20.9909C19.7401 21.1242 20.013 21.161 20.2695 21.0931C20.526 21.0252 20.745 20.8582 20.8783 20.6289C21.0116 20.3995 21.0484 20.1266 20.9805 19.8701L20.3335 17.4261C20.2853 17.243 20.3117 17.0482 20.407 16.8846C20.5022 16.7209 20.6585 16.6017 20.8415 16.5531L23.2855 15.9061C23.4152 15.8752 23.5375 15.8186 23.645 15.7397C23.7526 15.6609 23.8433 15.5613 23.9118 15.4468C23.9802 15.3323 24.0251 15.2053 24.0438 15.0733C24.0625 14.9412 24.0545 14.8067 24.0204 14.6778C23.9863 14.5488 23.9268 14.428 23.8453 14.3224C23.7638 14.2168 23.662 14.1286 23.5459 14.0629C23.4298 13.9973 23.3018 13.9555 23.1693 13.9401C23.0368 13.9247 22.9026 13.9359 22.7745 13.9731V13.9701ZM12.0135 14.9991C11.2179 14.9991 10.4548 14.683 9.89218 14.1204C9.32957 13.5578 9.0135 12.7948 9.0135 11.9991C9.0135 11.2035 9.32957 10.4404 9.89218 9.8778C10.4548 9.31519 11.2179 8.99912 12.0135 8.99912C12.8091 8.99912 13.5722 9.31519 14.1348 9.8778C14.6974 10.4404 15.0135 11.2035 15.0135 11.9991C15.0135 12.7948 14.6974 13.5578 14.1348 14.1204C13.5722 14.683 12.8091 14.9991 12.0135 14.9991Z" fill="black"/>
</svg>
