<svg width="24" height="24" viewBox="0 0 24 24" fill="none" xmlns="http://www.w3.org/2000/svg">
<g clip-path="url(#clip0_656_7995)">
<path d="M24 18.9998V3.99976C24 3.20411 23.6839 2.44104 23.1213 1.87844C22.5587 1.31583 21.7956 0.999756 21 0.999756H3C2.20435 0.999756 1.44129 1.31583 0.87868 1.87844C0.31607 2.44104 0 3.20411 0 3.99976L0 18.9998H11V20.9998H6V22.9998H18V20.9998H13V18.9998H24ZM3 2.99976H21C21.2652 2.99976 21.5196 3.10511 21.7071 3.29265C21.8946 3.48019 22 3.73454 22 3.99976V12.9998H2V3.99976C2 3.73454 2.10536 3.48019 2.29289 3.29265C2.48043 3.10511 2.73478 2.99976 3 2.99976V2.99976ZM2 14.9998H22V16.9998H2V14.9998Z" fill="black"/>
</g>
<defs>
<clipPath id="clip0_656_7995">
<rect width="24" height="24" fill="white"/>
</clipPath>
</defs>
</svg>
