<svg width="24" height="24" viewBox="0 0 24 24" fill="none" xmlns="http://www.w3.org/2000/svg">
<g clip-path="url(#clip0_656_7993)">
<path d="M20.418 2.975C20.2067 2.39709 19.8232 1.89789 19.3193 1.54473C18.8154 1.19157 18.2153 1.00145 17.6 1H6.40001C5.78468 1.00145 5.18459 1.19157 4.68069 1.54473C4.17679 1.89789 3.79332 2.39709 3.58201 2.975L1.43801 8.869C0.484716 11.4845 -0.00200458 14.2471 6.20493e-06 17.031V19H2.00001V23H8.00001V19H16V23H22V19H24V17.031C24.002 14.2471 23.5153 11.4845 22.562 8.869L20.418 2.975ZM5.46101 3.658C5.53115 3.46526 5.65887 3.29876 5.82683 3.18105C5.9948 3.06335 6.1949 3.00014 6.40001 3H17.6C17.8051 3.00014 18.0052 3.06335 18.1732 3.18105C18.3411 3.29876 18.4689 3.46526 18.539 3.658L20.683 9.558C20.856 10.035 21 10.52 21.139 11.005H2.86101C3.00001 10.52 3.14401 10.035 3.31701 9.558L5.46101 3.658ZM6.00001 21H4.00001V19H6.00001V21ZM20 21H18V19H20V21ZM2.00001 17C2.00449 15.6578 2.13236 14.3188 2.38201 13H4.00001V14C4.00001 14.2652 4.10536 14.5196 4.2929 14.7071C4.48044 14.8946 4.73479 15 5.00001 15C5.26522 15 5.51958 14.8946 5.70711 14.7071C5.89465 14.5196 6.00001 14.2652 6.00001 14V13H18V14C18 14.2652 18.1054 14.5196 18.2929 14.7071C18.4804 14.8946 18.7348 15 19 15C19.2652 15 19.5196 14.8946 19.7071 14.7071C19.8947 14.5196 20 14.2652 20 14V13H21.618C21.8677 14.3188 21.9955 15.6578 22 17H2.00001Z" fill="black"/>
</g>
<defs>
<clipPath id="clip0_656_7993">
<rect width="24" height="24" fill="white"/>
</clipPath>
</defs>
</svg>
