<svg width="24" height="24" viewBox="0 0 24 24" fill="none" xmlns="http://www.w3.org/2000/svg">
<path d="M23 12C23 11.2043 22.6839 10.4413 22.1213 9.87866C21.5587 9.31605 20.7956 8.99998 20 8.99998H19V5.99998H18C17.9977 5.41389 17.867 4.83543 17.6171 4.30527C17.3673 3.77512 17.0043 3.30615 16.5537 2.93135C16.1031 2.55654 15.5759 2.28501 15.0091 2.13585C14.4423 1.98669 13.8497 1.96352 13.273 2.06798C12.8647 1.44576 12.309 0.934166 11.6551 0.57874C11.0013 0.223314 10.2697 0.035092 9.52553 0.0308356C8.78135 0.0265791 8.04766 0.20642 7.38981 0.554344C6.73195 0.902268 6.17035 1.40748 5.755 2.02498C4.74088 2.08553 3.78797 2.53036 3.09033 3.26887C2.39268 4.00739 2.00277 4.98405 2 5.99998H1V21C1 21.7956 1.31607 22.5587 1.87868 23.1213C2.44129 23.6839 3.20435 24 4 24H16C16.7956 24 17.5587 23.6839 18.1213 23.1213C18.6839 22.5587 19 21.7956 19 21V19H23V12ZM6 3.99998C6.059 3.99998 6.919 4.14198 6.919 4.14198L7.239 3.45398C7.44831 3.01189 7.78271 2.64091 8.20078 2.387C8.61885 2.13309 9.10223 2.00739 9.59103 2.02549C10.0798 2.04359 10.5526 2.20468 10.9507 2.48881C11.3489 2.77294 11.655 3.16762 11.831 3.62398L12.208 4.62398L13.18 4.18398C13.484 4.04734 13.8172 3.98883 14.1495 4.01374C14.4819 4.03865 14.8027 4.14621 15.0829 4.32664C15.363 4.50707 15.5937 4.75464 15.7539 5.04688C15.914 5.33911 15.9986 5.66673 16 5.99998H9V13C9 13.2652 8.89464 13.5196 8.70711 13.7071C8.51957 13.8946 8.26522 14 8 14C7.73478 14 7.48043 13.8946 7.29289 13.7071C7.10536 13.5196 7 13.2652 7 13V5.99998H4C4 5.46955 4.21071 4.96084 4.58579 4.58577C4.96086 4.21069 5.46957 3.99998 6 3.99998V3.99998ZM17 21C17 21.2652 16.8946 21.5196 16.7071 21.7071C16.5196 21.8946 16.2652 22 16 22H4C3.73478 22 3.48043 21.8946 3.29289 21.7071C3.10536 21.5196 3 21.2652 3 21V7.99998H5V13C5 13.7956 5.31607 14.5587 5.87868 15.1213C6.44129 15.6839 7.20435 16 8 16C8.79565 16 9.55871 15.6839 10.1213 15.1213C10.6839 14.5587 11 13.7956 11 13V7.99998H17V21ZM21 17H19V11H20C20.2652 11 20.5196 11.1053 20.7071 11.2929C20.8946 11.4804 21 11.7348 21 12V17Z" fill="black"/>
</svg>
