<svg width="15" height="15" viewBox="0 0 15 15" fill="none" xmlns="http://www.w3.org/2000/svg">
<path d="M14.829 14.0049L11.347 10.5229C12.2959 9.36245 12.7624 7.88166 12.6501 6.38685C12.5378 4.89204 11.8552 3.49758 10.7436 2.49191C9.63201 1.48624 8.17638 0.946292 6.67783 0.983761C5.17928 1.02123 3.75245 1.63324 2.69248 2.69321C1.63251 3.75318 1.0205 5.18001 0.983029 6.67856C0.94556 8.17712 1.4855 9.63275 2.49118 10.7444C3.49685 11.856 4.89131 12.5385 6.38612 12.6508C7.88093 12.7632 9.36172 12.2966 10.5222 11.3478L14.0041 14.8297C14.1141 14.9359 14.2615 14.9947 14.4144 14.9934C14.5674 14.9921 14.7137 14.9307 14.8219 14.8226C14.93 14.7144 14.9914 14.5681 14.9927 14.4152C14.994 14.2622 14.9352 14.1149 14.829 14.0049ZM6.83321 11.5006C5.91023 11.5006 5.00797 11.2269 4.24055 10.7141C3.47312 10.2014 2.87498 9.47252 2.52177 8.61979C2.16856 7.76707 2.07614 6.82876 2.25621 5.92352C2.43627 5.01827 2.88073 4.18675 3.53337 3.53411C4.18602 2.88146 5.01754 2.437 5.92278 2.25694C6.82803 2.07688 7.76634 2.16929 8.61906 2.5225C9.47178 2.87571 10.2006 3.47385 10.7134 4.24128C11.2262 5.00871 11.4999 5.91096 11.4999 6.83394C11.4985 8.07119 11.0064 9.25737 10.1315 10.1322C9.25663 11.0071 8.07046 11.4992 6.83321 11.5006Z" fill="#C2C2C2"/>
</svg>
