<svg width="25" height="24" viewBox="0 0 25 24" fill="none" xmlns="http://www.w3.org/2000/svg">
<path d="M19.7917 13.9995C19.0309 14.0022 18.28 14.1659 17.5926 14.4789C16.9052 14.7919 16.2981 15.2466 15.8146 15.8105L10.1896 13.3725C10.3327 12.9275 10.4091 12.4652 10.4167 11.9995C10.4099 11.5389 10.3359 11.0814 10.1969 10.6405L15.8156 8.19049C16.604 9.0812 17.694 9.67679 18.8944 9.8727C20.0947 10.0686 21.3285 9.85229 22.3792 9.26173C23.4299 8.67118 24.2303 7.74415 24.6398 6.64343C25.0493 5.5427 25.0418 4.33865 24.6186 3.24271C24.1954 2.14677 23.3835 1.229 22.3255 0.650568C21.2675 0.0721326 20.0311 -0.129989 18.8333 0.0796941C17.6355 0.289378 16.553 0.897461 15.7758 1.79717C14.9986 2.69687 14.5764 3.83068 14.5833 4.99949C14.5833 5.14149 14.6146 5.27549 14.6271 5.41449L8.4375 8.11149C7.525 7.39764 6.38543 7.00521 5.20833 6.99949C3.827 6.99949 2.50224 7.52627 1.52549 8.46395C0.548734 9.40163 0 10.6734 0 11.9995C0 13.3256 0.548734 14.5973 1.52549 15.535C2.50224 16.4727 3.827 16.9995 5.20833 16.9995C6.38033 16.9949 7.51569 16.6069 8.42708 15.8995L14.6271 18.5865C14.6146 18.7255 14.5833 18.8585 14.5833 18.9995C14.5833 19.9884 14.8888 20.9551 15.4611 21.7773C16.0334 22.5996 16.8468 23.2404 17.7985 23.6189C18.7502 23.9973 19.7974 24.0963 20.8078 23.9034C21.8181 23.7105 22.7461 23.2343 23.4745 22.535C24.2029 21.8358 24.699 20.9448 24.8999 19.9749C25.1009 19.005 24.9977 17.9997 24.6035 17.0861C24.2093 16.1724 23.5418 15.3915 22.6853 14.8421C21.8288 14.2927 20.8218 13.9995 19.7917 13.9995V13.9995ZM19.7917 2.99949C20.2037 2.99949 20.6065 3.11678 20.9491 3.33655C21.2917 3.55631 21.5587 3.86867 21.7164 4.23412C21.8741 4.59957 21.9154 5.00171 21.835 5.38967C21.7546 5.77763 21.5562 6.134 21.2648 6.4137C20.9734 6.69341 20.6022 6.88389 20.1981 6.96106C19.794 7.03823 19.3751 6.99862 18.9944 6.84725C18.6137 6.69587 18.2884 6.43953 18.0594 6.11063C17.8305 5.78173 17.7083 5.39505 17.7083 4.99949C17.7083 4.46905 17.9278 3.96035 18.3185 3.58527C18.7092 3.2102 19.2391 2.99949 19.7917 2.99949V2.99949ZM5.20833 13.9995C4.79629 13.9995 4.3935 13.8822 4.0509 13.6624C3.70829 13.4427 3.44127 13.1303 3.28358 12.7649C3.1259 12.3994 3.08465 11.9973 3.16503 11.6093C3.24542 11.2213 3.44383 10.865 3.73519 10.5853C4.02655 10.3056 4.39777 10.1151 4.8019 10.0379C5.20602 9.96075 5.62491 10.0004 6.00559 10.1517C6.38627 10.3031 6.71164 10.5594 6.94056 10.8883C7.16948 11.2172 7.29167 11.6039 7.29167 11.9995C7.29167 12.5299 7.07217 13.0386 6.68147 13.4137C6.29077 13.7888 5.76087 13.9995 5.20833 13.9995ZM19.7917 20.9995C19.3796 20.9995 18.9768 20.8822 18.6342 20.6624C18.2916 20.4427 18.0246 20.1303 17.8669 19.7649C17.7092 19.3994 17.668 18.9973 17.7484 18.6093C17.8288 18.2213 18.0272 17.865 18.3185 17.5853C18.6099 17.3056 18.9811 17.1151 19.3852 17.0379C19.7894 16.9607 20.2082 17.0004 20.5889 17.1517C20.9696 17.3031 21.295 17.5594 21.5239 17.8883C21.7528 18.2172 21.875 18.6039 21.875 18.9995C21.875 19.5299 21.6555 20.0386 21.2648 20.4137C20.8741 20.7888 20.3442 20.9995 19.7917 20.9995Z" fill="#1B1919"/>
</svg>
