<svg width="24" height="24" viewBox="0 0 24 24" fill="none" xmlns="http://www.w3.org/2000/svg">
<path d="M23.8362 8.7942C23.6316 8.1431 23.223 7.57511 22.6706 7.17423C22.1183 6.77335 21.4516 6.56087 20.7692 6.5682H16.4002L15.0732 2.4322C14.8645 1.78116 14.4545 1.21321 13.9022 0.810264C13.3499 0.407315 12.6839 0.190186 12.0002 0.190186C11.3165 0.190186 10.6505 0.407315 10.0982 0.810264C9.54592 1.21321 9.13587 1.78116 8.92719 2.4322L7.60019 6.5682H3.23119C2.55094 6.56917 1.88838 6.78508 1.33817 7.1851C0.787961 7.58512 0.378234 8.14879 0.167514 8.79559C-0.043205 9.44238 -0.0441377 10.1392 0.16485 10.7866C0.373837 11.4339 0.782054 11.9987 1.33119 12.4002L4.88719 15.0002L3.53519 19.1872C3.3167 19.8366 3.31394 20.5392 3.5273 21.1903C3.74067 21.8414 4.15874 22.4061 4.71919 22.8002C5.27004 23.207 5.93759 23.4249 6.62235 23.4215C7.30711 23.418 7.97244 23.1935 8.51919 22.7812L12.0002 20.2192L15.4822 22.7782C16.032 23.1827 16.696 23.4023 17.3786 23.4057C18.0611 23.409 18.7272 23.1958 19.281 22.7967C19.8347 22.3976 20.2477 21.8332 20.4605 21.1847C20.6733 20.5361 20.6749 19.8368 20.4652 19.1872L19.1132 15.0002L22.6732 12.4002C23.2286 12.0037 23.6416 11.439 23.8511 10.7895C24.0605 10.1401 24.0553 9.44045 23.8362 8.7942ZM21.4932 10.7852L17.3492 13.8142C17.179 13.9384 17.0523 14.1131 16.9873 14.3135C16.9223 14.5139 16.9223 14.7298 16.9872 14.9302L18.5622 19.8002C18.6419 20.0472 18.6412 20.3131 18.5602 20.5597C18.4793 20.8063 18.3222 21.0209 18.1116 21.1726C17.901 21.3243 17.6477 21.4053 17.3882 21.404C17.1287 21.4026 16.8762 21.319 16.6672 21.1652L12.5922 18.1652C12.4206 18.0391 12.2132 17.9711 12.0002 17.9711C11.7872 17.9711 11.5798 18.0391 11.4082 18.1652L7.33319 21.1652C7.12428 21.3211 6.87113 21.4064 6.61046 21.4088C6.34978 21.4112 6.09513 21.3305 5.88342 21.1784C5.67171 21.0263 5.51394 20.8107 5.43299 20.5629C5.35204 20.3151 5.35211 20.048 5.43319 19.8002L7.01319 14.9302C7.07811 14.7298 7.07806 14.5139 7.01305 14.3135C6.94805 14.1131 6.8214 13.9384 6.65119 13.8142L2.50719 10.7852C2.2985 10.6324 2.14343 10.4175 2.06413 10.1713C1.98484 9.92514 1.98538 9.66018 2.06568 9.4143C2.14597 9.16842 2.30192 8.9542 2.51123 8.80225C2.72055 8.6503 2.97254 8.56838 3.23119 8.5682H8.33119C8.54291 8.56819 8.74916 8.50099 8.92024 8.37627C9.09132 8.25156 9.21841 8.07576 9.28319 7.8742L10.8332 3.0432C10.9128 2.79598 11.0687 2.58039 11.2786 2.42745C11.4885 2.27451 11.7415 2.1921 12.0012 2.1921C12.2609 2.1921 12.5139 2.27451 12.7238 2.42745C12.9337 2.58039 13.0896 2.79598 13.1692 3.0432L14.7192 7.8742C14.784 8.07576 14.9111 8.25156 15.0821 8.37627C15.2532 8.50099 15.4595 8.56819 15.6712 8.5682H20.7712C21.0298 8.56838 21.2818 8.6503 21.4912 8.80225C21.7005 8.9542 21.8564 9.16842 21.9367 9.4143C22.017 9.66018 22.0175 9.92514 21.9383 10.1713C21.859 10.4175 21.7039 10.6324 21.4952 10.7852H21.4932Z" fill="#1B1919"/>
</svg>
