<svg width="24" height="24" viewBox="0 0 24 24" fill="none" xmlns="http://www.w3.org/2000/svg">
<path d="M5.48284 14.1919L4.3978 13.3995H4.39912L1.92726 11.5922C1.54829 11.3151 1.26657 10.9254 1.12235 10.4786C0.978123 10.0319 0.978767 9.55098 1.12419 9.10462C1.26961 8.65825 1.55237 8.26926 1.93208 7.9932C2.31155 7.71731 2.76845 7.56832 3.2376 7.56747H7.60605H8.33542L8.55824 6.87297L9.88524 2.73697L9.88533 2.7367C10.0293 2.28741 10.3123 1.89546 10.6935 1.61738C11.0746 1.3393 11.5342 1.18945 12.0061 1.18945C12.4779 1.18945 12.9375 1.3393 13.3186 1.61738C13.6998 1.89546 13.9828 2.28741 14.1268 2.7367L14.1269 2.73697L15.4539 6.87297L15.6767 7.56747H16.4061H20.7785C21.2477 7.56832 21.7046 7.71731 22.084 7.9932C22.4637 8.26926 22.7465 8.65825 22.8919 9.10462C23.0373 9.55098 23.038 10.0319 22.8938 10.4786C22.7495 10.9253 22.4679 11.3151 22.089 11.5921C22.0889 11.5922 22.0889 11.5922 22.0888 11.5922L18.5293 14.1919L17.9452 14.6185L18.1674 15.3067L19.5194 19.4937C19.5194 19.4937 19.5194 19.4937 19.5194 19.4937C19.6642 19.942 19.663 20.4246 19.5162 20.8722C19.3693 21.3198 19.0843 21.7093 18.7022 21.9847C18.32 22.2601 17.8604 22.4072 17.3893 22.4049C16.9182 22.4026 16.46 22.251 16.0806 21.9719L16.0802 21.9717L12.5982 19.4127L12.0056 18.9771L11.4133 19.4131L7.9323 21.9751L7.93226 21.975L7.923 21.982C7.54834 22.2645 7.09243 22.4184 6.62321 22.4208C6.15398 22.4231 5.69656 22.2738 5.31909 21.995L5.30977 21.9881L5.30028 21.9815C4.91618 21.7114 4.62966 21.3244 4.48344 20.8781C4.33721 20.4319 4.33911 19.9504 4.48885 19.5054L4.48892 19.5054L4.49267 19.4937L5.84467 15.3067L6.06692 14.6185L5.48284 14.1919Z" fill="#F5C64D" stroke="black" stroke-width="2"/>
</svg>
