<svg width="164" height="24" viewBox="0 0 164 24" fill="none" xmlns="http://www.w3.org/2000/svg">
<g clip-path="url(#clip0_665_2537)">
<path d="M4.39194 13.3995H4.39326L1.9214 11.5922C1.54243 11.3151 1.26071 10.9254 1.11649 10.4786L0.16485 10.7859L1.11649 10.4786C0.972264 10.0319 0.972907 9.55098 1.11833 9.10462C1.26375 8.65825 1.54651 8.26926 1.92622 7.9932C2.30576 7.71726 2.76277 7.56826 3.23201 7.56747H7.60019H8.32956L8.55238 6.87297L9.87938 2.73697L9.87947 2.7367C10.0235 2.28741 10.3065 1.89546 10.6876 1.61738C11.0688 1.3393 11.5284 1.18945 12.0002 1.18945C12.472 1.18945 12.9316 1.3393 13.3128 1.61738C13.6939 1.89546 13.9769 2.28741 14.1209 2.7367L14.121 2.73697L15.448 6.87297L15.6708 7.56747H16.4002H20.7724C21.2416 7.56826 21.6986 7.71726 22.0782 7.9932L22.6662 7.18437L22.0782 7.9932C22.4579 8.26926 22.7406 8.65825 22.8861 9.10462C23.0315 9.55099 23.0321 10.0319 22.8879 10.4786C22.7437 10.9253 22.462 11.3151 22.0831 11.5921C22.0831 11.5922 22.083 11.5922 22.083 11.5922L18.5234 14.1919L17.9393 14.6185L18.1616 15.3067L19.5136 19.4937C19.5136 19.4937 19.5136 19.4937 19.5136 19.4937C19.6583 19.942 19.6572 20.4246 19.5103 20.8722C19.3635 21.3198 19.0785 21.7093 18.6963 21.9847C18.3141 22.2601 17.8545 22.4072 17.3834 22.4049C16.9124 22.4026 16.4542 22.251 16.0747 21.9719L16.0744 21.9717L12.5924 19.4127L11.9998 18.9771L11.4074 19.4131L7.92644 21.9751L7.9264 21.975L7.91714 21.982C7.54248 22.2645 7.08657 22.4184 6.61735 22.4208C6.14812 22.4231 5.6907 22.2738 5.31323 21.995L5.30391 21.9881L5.29442 21.9815C4.91032 21.7114 4.62381 21.3244 4.47758 20.8781C4.33135 20.4319 4.33325 19.9504 4.48299 19.5054L4.48306 19.5054L4.48681 19.4937L5.83881 15.3067L6.06106 14.6185L5.47698 14.1919L4.39194 13.3995Z" fill="#F5C64D" stroke="black" stroke-width="2"/>
</g>
<g clip-path="url(#clip1_665_2537)">
<path d="M39.3919 13.3995H39.3933L36.9214 11.5922C36.5424 11.3151 36.2607 10.9254 36.1165 10.4786L35.1648 10.7859L36.1165 10.4786C35.9723 10.0319 35.9729 9.55098 36.1183 9.10462C36.2637 8.65825 36.5465 8.26926 36.9262 7.9932C37.3058 7.71726 37.7628 7.56826 38.232 7.56747H42.6002H43.3296L43.5524 6.87297L44.8794 2.73697L44.8795 2.7367C45.0235 2.28741 45.3065 1.89546 45.6876 1.61738C46.0688 1.3393 46.5284 1.18945 47.0002 1.18945C47.472 1.18945 47.9316 1.3393 48.3128 1.61738C48.6939 1.89546 48.9769 2.28741 49.1209 2.7367L49.121 2.73697L50.448 6.87297L50.6708 7.56747H51.4002H55.7724C56.2416 7.56826 56.6986 7.71726 57.0782 7.9932L57.6662 7.18437L57.0782 7.9932C57.4579 8.26926 57.7406 8.65825 57.8861 9.10462C58.0315 9.55099 58.0321 10.0319 57.8879 10.4786C57.7437 10.9253 57.462 11.3151 57.0831 11.5921C57.0831 11.5922 57.083 11.5922 57.083 11.5922L53.5234 14.1919L52.9393 14.6185L53.1616 15.3067L54.5136 19.4937C54.5136 19.4937 54.5136 19.4937 54.5136 19.4937C54.6583 19.942 54.6572 20.4246 54.5103 20.8722C54.3635 21.3198 54.0785 21.7093 53.6963 21.9847C53.3141 22.2601 52.8545 22.4072 52.3834 22.4049C51.9124 22.4026 51.4542 22.251 51.0747 21.9719L51.0744 21.9717L47.5924 19.4127L46.9998 18.9771L46.4074 19.4131L42.9264 21.9751L42.9264 21.975L42.9171 21.982C42.5425 22.2645 42.0866 22.4184 41.6173 22.4208C41.1481 22.4231 40.6907 22.2738 40.3132 21.995L40.3039 21.9881L40.2944 21.9815C39.9103 21.7114 39.6238 21.3244 39.4776 20.8781C39.3314 20.4319 39.3332 19.9504 39.483 19.5054L39.4831 19.5054L39.4868 19.4937L40.8388 15.3067L41.0611 14.6185L40.477 14.1919L39.3919 13.3995Z" fill="#F5C64D" stroke="black" stroke-width="2"/>
</g>
<g clip-path="url(#clip2_665_2537)">
<path d="M74.3919 13.3995H74.3933L71.9214 11.5922C71.5424 11.3151 71.2607 10.9254 71.1165 10.4786L70.1648 10.7859L71.1165 10.4786C70.9723 10.0319 70.9729 9.55098 71.1183 9.10462C71.2637 8.65825 71.5465 8.26926 71.9262 7.9932C72.3058 7.71726 72.7628 7.56826 73.232 7.56747H77.6002H78.3296L78.5524 6.87297L79.8794 2.73697L79.8795 2.7367C80.0235 2.28741 80.3065 1.89546 80.6876 1.61738C81.0688 1.3393 81.5284 1.18945 82.0002 1.18945C82.472 1.18945 82.9316 1.3393 83.3128 1.61738C83.6939 1.89546 83.9769 2.28741 84.1209 2.7367L84.121 2.73697L85.448 6.87297L85.6708 7.56747H86.4002H90.7724C91.2416 7.56826 91.6986 7.71726 92.0782 7.9932L92.6662 7.18437L92.0782 7.9932C92.4579 8.26926 92.7406 8.65825 92.8861 9.10462C93.0315 9.55099 93.0321 10.0319 92.8879 10.4786C92.7437 10.9253 92.462 11.3151 92.0831 11.5921C92.0831 11.5922 92.083 11.5922 92.083 11.5922L88.5234 14.1919L87.9393 14.6185L88.1616 15.3067L89.5136 19.4937C89.5136 19.4937 89.5136 19.4937 89.5136 19.4937C89.6583 19.942 89.6572 20.4246 89.5103 20.8722C89.3635 21.3198 89.0785 21.7093 88.6963 21.9847C88.3141 22.2601 87.8545 22.4072 87.3834 22.4049C86.9124 22.4026 86.4542 22.251 86.0747 21.9719L86.0744 21.9717L82.5924 19.4127L81.9998 18.9771L81.4074 19.4131L77.9264 21.9751L77.9264 21.975L77.9171 21.982C77.5425 22.2645 77.0866 22.4184 76.6173 22.4208C76.1481 22.4231 75.6907 22.2738 75.3132 21.995L75.3039 21.9881L75.2944 21.9815C74.9103 21.7114 74.6238 21.3244 74.4776 20.8781C74.3314 20.4319 74.3332 19.9504 74.483 19.5054L74.4831 19.5054L74.4868 19.4937L75.8388 15.3067L76.0611 14.6185L75.477 14.1919L74.3919 13.3995Z" fill="#F5C64D" stroke="black" stroke-width="2"/>
</g>
<g clip-path="url(#clip3_665_2537)">
<path d="M109.392 13.3995H109.393L106.921 11.5922C106.542 11.3151 106.261 10.9254 106.116 10.4786L105.165 10.7859L106.116 10.4786C105.972 10.0319 105.973 9.55098 106.118 9.10462C106.264 8.65825 106.547 8.26926 106.926 7.9932C107.306 7.71726 107.763 7.56826 108.232 7.56747H112.6H113.33L113.552 6.87297L114.879 2.73697L114.879 2.7367C115.023 2.28741 115.306 1.89546 115.688 1.61738C116.069 1.3393 116.528 1.18945 117 1.18945C117.472 1.18945 117.932 1.3393 118.313 1.61738C118.694 1.89546 118.977 2.28741 119.121 2.7367L119.121 2.73697L120.448 6.87297L120.671 7.56747H121.4H125.772C126.242 7.56826 126.699 7.71726 127.078 7.9932L127.666 7.18437L127.078 7.9932C127.458 8.26926 127.741 8.65825 127.886 9.10462C128.031 9.55099 128.032 10.0319 127.888 10.4786C127.744 10.9253 127.462 11.3151 127.083 11.5921C127.083 11.5922 127.083 11.5922 127.083 11.5922L123.523 14.1919L122.939 14.6185L123.162 15.3067L124.514 19.4937C124.514 19.4937 124.514 19.4937 124.514 19.4937C124.658 19.942 124.657 20.4246 124.51 20.8722C124.363 21.3198 124.078 21.7093 123.696 21.9847C123.314 22.2601 122.854 22.4072 122.383 22.4049C121.912 22.4026 121.454 22.251 121.075 21.9719L121.074 21.9717L117.592 19.4127L117 18.9771L116.407 19.4131L112.926 21.9751L112.926 21.975L112.917 21.982C112.542 22.2645 112.087 22.4184 111.617 22.4208C111.148 22.4231 110.691 22.2738 110.313 21.995L110.304 21.9881L110.294 21.9815C109.91 21.7114 109.624 21.3244 109.478 20.8781C109.331 20.4319 109.333 19.9504 109.483 19.5054L109.483 19.5054L109.487 19.4937L110.839 15.3067L111.061 14.6185L110.477 14.1919L109.392 13.3995Z" fill="#F5C64D" stroke="black" stroke-width="2"/>
</g>
<g clip-path="url(#clip4_665_2537)">
<path d="M144.392 13.3995H144.393L141.921 11.5922C141.542 11.3151 141.261 10.9254 141.116 10.4786L140.165 10.7859L141.116 10.4786C140.972 10.0319 140.973 9.55098 141.118 9.10462C141.264 8.65825 141.547 8.26926 141.926 7.9932C142.306 7.71726 142.763 7.56826 143.232 7.56747H147.6H148.33L148.552 6.87297L149.879 2.73697L149.879 2.7367C150.023 2.28741 150.306 1.89546 150.688 1.61738C151.069 1.3393 151.528 1.18945 152 1.18945C152.472 1.18945 152.932 1.3393 153.313 1.61738C153.694 1.89546 153.977 2.28741 154.121 2.7367L154.121 2.73697L155.448 6.87297L155.671 7.56747H156.4H160.772C161.242 7.56826 161.699 7.71726 162.078 7.9932L162.666 7.18437L162.078 7.9932C162.458 8.26926 162.741 8.65825 162.886 9.10462C163.031 9.55099 163.032 10.0319 162.888 10.4786C162.744 10.9253 162.462 11.3151 162.083 11.5921C162.083 11.5922 162.083 11.5922 162.083 11.5922L158.523 14.1919L157.939 14.6185L158.162 15.3067L159.514 19.4937C159.514 19.4937 159.514 19.4937 159.514 19.4937C159.658 19.942 159.657 20.4246 159.51 20.8722C159.363 21.3198 159.078 21.7093 158.696 21.9847C158.314 22.2601 157.854 22.4072 157.383 22.4049C156.912 22.4026 156.454 22.251 156.075 21.9719L156.074 21.9717L152.592 19.4127L152 18.9771L151.407 19.4131L147.926 21.9751L147.926 21.975L147.917 21.982C147.542 22.2645 147.087 22.4184 146.617 22.4208C146.148 22.4231 145.691 22.2738 145.313 21.995L145.304 21.9881L145.294 21.9815C144.91 21.7114 144.624 21.3244 144.478 20.8781C144.331 20.4319 144.333 19.9504 144.483 19.5054L144.483 19.5054L144.487 19.4937L145.839 15.3067L146.061 14.6185L145.477 14.1919L144.392 13.3995Z" fill="#F5C64D" stroke="black" stroke-width="2"/>
</g>
<defs>
<clipPath id="clip0_665_2537">
<rect width="24" height="24" fill="white"/>
</clipPath>
<clipPath id="clip1_665_2537">
<rect width="24" height="24" fill="white" transform="translate(35)"/>
</clipPath>
<clipPath id="clip2_665_2537">
<rect width="24" height="24" fill="white" transform="translate(70)"/>
</clipPath>
<clipPath id="clip3_665_2537">
<rect width="24" height="24" fill="white" transform="translate(105)"/>
</clipPath>
<clipPath id="clip4_665_2537">
<rect width="24" height="24" fill="white" transform="translate(140)"/>
</clipPath>
</defs>
</svg>
