<svg width="31" height="30" viewBox="0 0 31 30" fill="none" xmlns="http://www.w3.org/2000/svg">
<path d="M30.5324 5.625C30.5324 4.58947 29.6117 3.75 28.476 3.75H23.2992C22.4329 1.5092 20.1141 0.00761719 17.5082 0H13.3953C10.7895 0.00761719 8.47062 1.5092 7.60434 3.75H2.42755C1.29181 3.75 0.371094 4.58947 0.371094 5.625C0.371094 6.66053 1.29181 7.5 2.42755 7.5H3.11305V23.125C3.11305 26.922 6.48897 30 10.6534 30H20.2501C24.4145 30 27.7905 26.922 27.7905 23.125V7.5H28.476C29.6117 7.5 30.5324 6.66053 30.5324 5.625ZM23.6776 23.125C23.6776 24.8509 22.1431 26.25 20.2502 26.25H10.6534C8.76045 26.25 7.22595 24.8509 7.22595 23.125V7.5H23.6776V23.125Z" fill="#5A5A5A"/>
<path d="M12.0242 22.5C13.16 22.5 14.0807 21.6605 14.0807 20.625V13.125C14.0807 12.0895 13.16 11.25 12.0242 11.25C10.8885 11.25 9.96777 12.0895 9.96777 13.125V20.625C9.96777 21.6605 10.8885 22.5 12.0242 22.5Z" fill="#5A5A5A"/>
<path d="M18.8792 22.5C20.0149 22.5 20.9357 21.6605 20.9357 20.625V13.125C20.9357 12.0895 20.0149 11.25 18.8792 11.25C17.7435 11.25 16.8228 12.0895 16.8228 13.125V20.625C16.8228 21.6605 17.7435 22.5 18.8792 22.5Z" fill="#5A5A5A"/>
</svg>
